<svg width="32" height="32" viewBox="0 0 32 32" fill="none" xmlns="http://www.w3.org/2000/svg">
<path d="M26.4262 10.3127V4.6238C26.4239 4.12238 26.2237 3.64216 25.8691 3.2876C25.5145 2.93303 25.0343 2.73281 24.5329 2.73047H22.6396C22.1366 2.73046 21.6541 2.92965 21.2976 3.28447C20.9411 3.63929 20.7397 4.12084 20.7373 4.6238V4.87269L9.18179 8.42825H4.62179C3.86828 8.43147 3.14644 8.73171 2.6129 9.2638C2.34889 9.5258 2.13918 9.83733 1.9958 10.1805C1.85242 10.5237 1.77818 10.8919 1.77734 11.2638V17.9038C1.77975 18.5017 1.97347 19.0831 2.33015 19.5629C2.68683 20.0428 3.18775 20.3959 3.75957 20.5705L4.34623 25.9038C4.44711 26.8326 4.88778 27.6913 5.5835 28.3148C6.27922 28.9383 7.18088 29.2827 8.11512 29.2816H9.35957C9.49197 29.2797 9.62256 29.2504 9.74312 29.1957C9.86367 29.1409 9.97159 29.0617 10.0601 28.9632C10.1486 28.8647 10.2157 28.7489 10.2573 28.6232C10.2989 28.4975 10.3141 28.3645 10.3018 28.2327L9.48401 20.8638L20.7373 25.1927V25.486C20.7397 25.9874 20.9399 26.4677 21.2945 26.8222C21.649 27.1768 22.1293 27.377 22.6307 27.3794H24.5329C25.0343 27.377 25.5145 27.1768 25.8691 26.8222C26.2237 26.4677 26.4239 25.9874 26.4262 25.486V19.7971C27.4329 19.7971 28.3983 19.3972 29.1101 18.6854C29.8219 17.9736 30.2218 17.0082 30.2218 16.0016V14.1082C30.2218 13.1016 29.8219 12.1362 29.1101 11.4244C28.3983 10.7126 27.4329 10.3127 26.4262 10.3127ZM3.67068 11.2638C3.67068 11.0116 3.77088 10.7696 3.94925 10.5913C4.12762 10.4129 4.36954 10.3127 4.62179 10.3127H8.41734V18.846H4.62179C4.36954 18.846 4.12762 18.7458 3.94925 18.5675C3.77088 18.3891 3.67068 18.1472 3.67068 17.8949V11.2638ZM8.11512 27.3794C7.64647 27.3821 7.19346 27.2109 6.84372 26.899C6.49399 26.587 6.27239 26.1564 6.22179 25.6905L5.67068 20.7394H7.56401L8.30179 27.3794H8.11512ZM10.3107 19.1394V10.0638L20.7373 6.85491V23.1127L10.3107 19.1394ZM24.5329 25.4771H22.6396V4.6238H24.5329V25.4771ZM28.3285 16.0016C28.3261 16.503 28.1259 16.9832 27.7713 17.3378C27.4168 17.6923 26.9365 17.8926 26.4351 17.8949V12.206C26.9365 12.2084 27.4168 12.4086 27.7713 12.7632C28.1259 13.1177 28.3261 13.5979 28.3285 14.0994V16.0016Z" fill="#BD996A"/>
</svg>
