<svg width="24" height="22" viewBox="0 0 24 22" fill="none" xmlns="http://www.w3.org/2000/svg">
<g id="Social">
<g id="004-instagram">
<path id="Shape" fill-rule="evenodd" clip-rule="evenodd" d="M7.77832 0H16.4408C20.427 0 23.6596 3.07862 23.6596 6.875V15.125C23.6596 18.9214 20.427 22 16.4408 22H7.77832C3.79213 22 0.55957 18.9214 0.55957 15.125V6.875C0.55957 3.07862 3.79213 0 7.77832 0ZM16.4408 19.9375C19.2273 19.9375 21.4939 17.7787 21.4939 15.125V6.875C21.4939 4.22125 19.2273 2.0625 16.4408 2.0625H7.77832C4.99188 2.0625 2.72519 4.22125 2.72519 6.875V15.125C2.72519 17.7787 4.99188 19.9375 7.77832 19.9375H16.4408Z" fill="black"/>
<path id="Shape_2" fill-rule="evenodd" clip-rule="evenodd" d="M6.33496 11C6.33496 7.96263 8.92072 5.5 12.11 5.5C15.2992 5.5 17.885 7.96263 17.885 11C17.885 14.0374 15.2992 16.5 12.11 16.5C8.92072 16.5 6.33496 14.0374 6.33496 11ZM8.50059 11C8.50059 12.8948 10.1205 14.4375 12.11 14.4375C14.0994 14.4375 15.7193 12.8948 15.7193 11C15.7193 9.10388 14.0994 7.5625 12.11 7.5625C10.1205 7.5625 8.50059 9.10388 8.50059 11Z" fill="black"/>
<ellipse id="Oval" cx="18.3174" cy="5.08737" rx="0.769519" ry="0.732875" fill="black"/>
</g>
</g>
</svg>
