<svg width="24" height="24" viewBox="0 0 24 24" fill="none" xmlns="http://www.w3.org/2000/svg">
<g id="mingcute:meta-fill" clip-path="url(#clip0_257_4227)">
<g id="Group">
<path id="Vector" fill-rule="evenodd" clip-rule="evenodd" d="M16.0234 4.5028C17.8534 4.3768 19.2674 5.44481 20.2084 6.67681C21.1564 7.91981 21.8094 9.5428 22.1684 11.1388C22.5254 12.7348 22.6214 14.4498 22.3244 15.9118C22.0394 17.3158 21.2784 18.9218 19.5574 19.4368C17.9374 19.9208 16.5174 19.2168 15.5054 18.3648C14.4894 17.5098 13.6294 16.3118 12.9534 15.1888C12.6372 14.6611 12.3403 14.1221 12.0634 13.5728C11.7867 14.1217 11.4902 14.6604 11.1744 15.1878C10.4984 16.3118 9.63838 17.5098 8.62238 18.3648C7.60938 19.2168 6.19038 19.9208 4.57038 19.4368C2.84938 18.9218 2.08838 17.3168 1.80338 15.9118C1.50738 14.4498 1.60338 12.7348 1.96038 11.1388C2.31838 9.5428 2.97138 7.91881 3.92038 6.67681C4.86038 5.44481 6.27438 4.3768 8.10438 4.5028C9.82038 4.6228 11.0674 5.7858 11.8444 6.7718L12.0644 7.0608L12.2834 6.7708C13.0604 5.7858 14.3074 4.6218 16.0234 4.5028ZM7.89638 7.4958C7.47638 7.4668 6.92638 7.68181 6.30438 8.49781C5.69038 9.3028 5.18038 10.4908 4.88738 11.7958C4.59538 13.1008 4.55238 14.3748 4.74338 15.3158C4.90838 16.1258 5.17338 16.4168 5.33538 16.5188L5.40338 16.5528L5.43038 16.5628C5.66238 16.6328 6.04438 16.6128 6.69038 16.0688C7.33538 15.5268 7.99338 14.6558 8.60438 13.6418C8.87638 13.1888 9.12938 12.7248 9.35638 12.2788L9.61638 11.7538L9.84938 11.2568L10.0554 10.7988L10.2304 10.3918L10.3734 10.0458C10.1799 9.65717 9.95831 9.28318 9.71038 8.92681C9.06638 8.01081 8.42038 7.53281 7.89638 7.49681V7.4958ZM16.2314 7.4958C15.7074 7.5328 15.0614 8.01081 14.4174 8.92681C14.1694 9.28317 13.9478 9.65716 13.7544 10.0458L13.9814 10.5888L14.1714 11.0228L14.2784 11.2568L14.5124 11.7538L14.7724 12.2788C14.9994 12.7248 15.2514 13.1888 15.5234 13.6418C16.1344 14.6558 16.7934 15.5268 17.4364 16.0688C18.0374 16.5748 18.4094 16.6268 18.6464 16.5758L18.6984 16.5628C18.8284 16.5228 19.1814 16.3138 19.3844 15.3148C19.5744 14.3748 19.5334 13.1008 19.2404 11.7948C18.9484 10.4908 18.4384 9.3028 17.8234 8.49781C17.2004 7.68181 16.6514 7.4678 16.2314 7.4958Z" fill="black"/>
</g>
</g>
<defs>
<clipPath id="clip0_257_4227">
<rect width="24" height="24" fill="white"/>
</clipPath>
</defs>
</svg>
